<svg xmlns="http://www.w3.org/2000/svg" width="1200" height="750" viewBox="0 0 1200 750" fill="none">
  <rect width="1200" height="750" rx="36" fill="#FDF3E0"/>
  <rect x="48" y="48" width="1104" height="654" rx="28" fill="#FFFFFF"/>
  <rect x="86" y="86" width="420" height="262" rx="24" fill="#D8F3DC"/>
  <circle cx="975" cy="176" r="96" fill="#FF7F51" fill-opacity="0.16"/>
  <circle cx="1045" cy="614" r="118" fill="#1F7A8C" fill-opacity="0.14"/>
  <rect x="554" y="112" width="221" height="18" rx="9" fill="#183D2C" fill-opacity="0.16"/>
  <rect x="554" y="152" width="396" height="26" rx="13" fill="#183D2C"/>
  <rect x="554" y="197" width="322" height="20" rx="10" fill="#183D2C" fill-opacity="0.18"/>
  <rect x="86" y="388" width="1028" height="110" rx="26" fill="#ECFFF4"/>
  <rect x="118" y="420" width="200" height="20" rx="10" fill="#183D2C" fill-opacity="0.14"/>
  <rect x="366" y="420" width="168" height="20" rx="10" fill="#183D2C" fill-opacity="0.14"/>
  <rect x="582" y="420" width="168" height="20" rx="10" fill="#183D2C" fill-opacity="0.14"/>
  <rect x="798" y="420" width="180" height="20" rx="10" fill="#183D2C" fill-opacity="0.14"/>
  <rect x="86" y="534" width="610" height="88" rx="24" fill="#F7E6C7"/>
  <rect x="740" y="534" width="248" height="88" rx="44" fill="#FF7F51"/>
  <text x="120" y="588" fill="#183D2C" font-family="Segoe UI, sans-serif" font-size="28">Screenshot placeholder</text>
  <text x="790" y="588" fill="#FFFFFF" font-family="Segoe UI, sans-serif" font-size="30" font-weight="700">View deal</text>
</svg>

